<svg xmlns="http://www.w3.org/2000/svg" viewBox="0 0 20 20" width="20" height="20"><defs><style>.a{fill:#fff}</style></defs><g id="icon"><path class="a" d="m15.946,12.554c-2.223-1.505-9.669-1.505-11.891,0-1.992,1.35-2.191,5.619-2.211,6.461-.012.531.408.972.94.985.008,0,.015,0,.023,0h14.388c.532,0,.963-.431.963-.962,0-.008,0-.015,0-.023-.019-.842-.218-5.111-2.21-6.46"/><path class="a" d="m10,9.875c2.727,0,4.938-2.211,4.938-4.938S12.727,0,10,0s-4.938,2.211-4.938,4.938h0c0,2.727,2.211,4.938,4.938,4.938"/></g></svg>