<?xml version="1.0" standalone="no"?>
<!DOCTYPE svg PUBLIC "-//W3C//DTD SVG 20010904//EN"
 "http://www.w3.org/TR/2001/REC-SVG-20010904/DTD/svg10.dtd">
<svg version="1.0" xmlns="http://www.w3.org/2000/svg"
 width="512.000000pt" height="512.000000pt" viewBox="0 0 512.000000 512.000000"
 preserveAspectRatio="xMidYMid meet">

<g transform="translate(0.000000,512.000000) scale(0.100000,-0.100000)"
fill="#000000" stroke="none">
<path d="M759 4870 c-8 -5 -129 -180 -268 -389 l-253 -379 4 -179 c3 -176 3
-179 35 -245 42 -90 100 -150 186 -193 38 -19 76 -35 83 -35 12 0 14 -220 14
-1380 l0 -1381 25 -24 24 -25 527 0 528 0 384 -222 c212 -123 403 -231 426
-240 49 -20 110 -23 157 -6 19 6 212 114 430 240 l396 228 527 0 527 0 24 25
25 24 0 1381 c0 1160 2 1380 14 1380 7 0 45 16 83 35 86 43 144 103 186 193
32 66 32 69 35 245 l4 179 -253 380 c-139 209 -261 384 -270 389 -23 12 -3579
12 -3600 -1z m3704 -430 l187 -280 -2090 0 -2090 0 187 280 186 280 1717 0
1717 0 186 -280z m-3583 -536 c0 -128 -13 -168 -75 -229 -101 -102 -229 -102
-330 0 -62 61 -75 101 -75 229 l0 96 240 0 240 0 0 -96z m640 0 c0 -128 -13
-168 -75 -229 -51 -52 -102 -75 -165 -75 -63 0 -114 23 -165 75 -62 61 -75
101 -75 229 l0 96 240 0 240 0 0 -96z m640 0 c0 -128 -13 -168 -75 -229 -101
-102 -229 -102 -330 0 -62 61 -75 101 -75 229 l0 96 240 0 240 0 0 -96z m640
0 c0 -53 -5 -115 -12 -138 -16 -55 -99 -138 -154 -154 -94 -28 -169 -8 -239
63 -62 61 -75 101 -75 229 l0 96 240 0 240 0 0 -96z m640 0 c0 -53 -5 -115
-12 -138 -16 -55 -99 -138 -154 -154 -94 -28 -169 -8 -239 63 -62 61 -75 101
-75 229 l0 96 240 0 240 0 0 -96z m640 0 c0 -53 -5 -115 -12 -138 -16 -55 -99
-138 -154 -154 -94 -28 -169 -8 -239 63 -62 61 -75 101 -75 229 l0 96 240 0
240 0 0 -96z m640 0 c0 -53 -5 -115 -12 -138 -16 -55 -99 -138 -154 -154 -94
-28 -169 -8 -239 63 -62 61 -75 101 -75 229 l0 96 240 0 240 0 0 -96z m-3715
-350 c26 -26 78 -60 114 -78 60 -28 75 -31 161 -31 86 0 101 3 161 31 36 18
87 52 113 76 l46 45 46 -45 c26 -24 77 -58 113 -76 60 -28 75 -31 161 -31 86
0 101 3 161 31 36 18 87 52 113 76 l46 45 46 -45 c26 -24 77 -58 113 -76 60
-28 75 -31 161 -31 86 0 101 3 161 31 36 18 87 52 113 76 l46 45 46 -45 c26
-24 77 -58 113 -76 60 -28 75 -31 161 -31 86 0 101 3 161 31 36 18 87 52 113
76 l46 45 46 -45 c26 -24 77 -58 113 -76 60 -28 75 -31 161 -31 86 0 101 3
161 31 36 18 87 52 113 76 l46 45 45 -44 c45 -43 117 -85 168 -97 l27 -6 0
-1325 0 -1325 -332 0 -331 0 61 39 c41 27 69 55 89 88 l28 48 0 705 0 705 -28
47 c-15 26 -46 60 -70 76 -75 52 -1151 668 -1186 680 -43 15 -99 15 -142 0
-34 -11 -1077 -609 -1176 -674 -33 -21 -62 -51 -80 -81 l-28 -48 0 -705 0
-705 28 -48 c20 -33 48 -61 89 -88 l61 -39 -331 0 -332 0 0 1325 0 1325 28 6
c51 13 121 54 164 97 24 24 43 45 44 45 0 1 22 -19 49 -44z m2143 -840 c312
-180 577 -337 590 -351 l22 -24 0 -659 0 -659 -22 -24 c-31 -33 -1151 -677
-1178 -677 -26 0 -1147 644 -1177 677 l-23 24 0 658 c0 613 1 660 18 680 24
30 1152 680 1180 680 13 1 273 -143 590 -325z"/>
<path d="M2485 2730 c-94 -55 -85 57 -85 -1057 l0 -984 25 -24 c32 -33 78 -33
110 0 l25 24 0 436 0 435 155 0 c152 0 156 1 180 25 16 15 25 36 25 55 0 19
-9 40 -25 55 -24 24 -28 25 -180 25 l-155 0 0 431 c0 389 2 431 16 425 8 -3
74 -40 145 -81 146 -85 183 -93 218 -49 25 32 27 61 6 91 -21 30 -356 223
-386 222 -13 0 -46 -13 -74 -29z"/>
<path d="M2069 2421 l-24 -19 -5 -528 -5 -527 -165 412 c-106 267 -172 418
-185 427 -30 22 -73 17 -100 -11 l-25 -24 0 -551 0 -551 25 -24 c29 -30 74
-32 106 -6 l24 19 5 328 5 327 165 -412 c106 -267 172 -418 185 -427 30 -22
73 -17 100 11 l25 24 0 751 0 751 -25 24 c-29 30 -74 32 -106 6z"/>
<path d="M3094 2430 c-27 -11 -54 -48 -54 -75 0 -34 26 -61 95 -100 l65 -36 0
-605 0 -605 25 -24 c32 -33 78 -33 110 0 l25 24 0 556 c0 305 3 555 6 555 3 0
33 -16 65 -35 75 -44 119 -46 148 -9 27 34 27 67 -1 98 -23 25 -434 267 -453
265 -5 0 -20 -4 -31 -9z"/>
</g>
</svg>
