<svg xmlns="http://www.w3.org/2000/svg" viewBox="0 0 20 20" width="20" height="20">
    <defs>
        <style>.a{fill:#bebec3}</style>
    </defs>
    <path class="a" d="m19.565,17.633l-4.481-4.19c1.099-1.456,1.694-3.23,1.694-5.054C16.779,3.756,13.024,0,8.391,0,3.759,0,.003,3.754.003,8.387c0,4.632,3.754,8.388,8.387,8.389,1.677.005,3.317-.498,4.703-1.442l4.6,4.297c.254.238.588.37.936.369.379,0,.741-.154,1.002-.429,0,0,0,0,0,0,.517-.554.487-1.421-.066-1.938Zm-11.175-3.655c-3.089,0-5.593-2.504-5.593-5.593s2.504-5.593,5.593-5.593v.004c3.087.004,5.589,2.505,5.593,5.593-.002,3.087-2.505,5.589-5.593,5.589Z"/>
</svg>