<svg xmlns="http://www.w3.org/2000/svg" viewBox="0 0 20 20" width="20" height="20"><defs><style>.a{fill:none;isolation:isolate}.b{fill:#fff}.c{fill:#707070}</style></defs><g><circle class="c" cx="10" cy="10" r="10"/><g id="_" class="a"><g class="a"><path class="b" d="m10.878,7.365c0-.667-.439-1.094-1.133-1.094-.586,0-1.053.308-1.479.747l-1.079-.986c.693-.786,1.639-1.333,2.798-1.333,1.6,0,2.772.827,2.772,2.533,0,1.891-2.318,2.531-2.119,4.411h-1.706c-.319-2.145,1.947-3.013,1.947-4.277Zm-2.306,6.543c0-.734.521-1.279,1.213-1.279.706,0,1.227.545,1.227,1.279,0,.719-.521,1.279-1.227,1.279-.692,0-1.213-.56-1.213-1.279Z"/></g></g></g></svg>