<svg width="21" height="21" viewBox="0 0 21 21" fill="none" xmlns="http://www.w3.org/2000/svg">
<path d="M19.0001 19.9989C18.7374 19.9992 18.4771 19.9476 18.2345 19.847C17.9918 19.7464 17.7715 19.5988 17.586 19.4128L1.58601 3.4128C1.2217 3.03559 1.01993 2.53045 1.02449 2.00606C1.02905 1.48166 1.23961 0.980023 1.61043 0.609206C1.98124 0.23839 2.48252 0.02807 3.00691 0.0235131C3.53131 0.0189563 4.03693 0.220476 4.41414 0.584792L20.4141 16.5848C20.6938 16.8645 20.8839 17.2208 20.961 17.6087C21.0381 17.9966 20.9986 18.3987 20.8472 18.7641C20.6959 19.1295 20.4397 19.4419 20.1109 19.6617C19.7821 19.8815 19.3956 19.9988 19.0001 19.9989Z" fill="#004B9E"/>
<path d="M20.9999 1.99886C21.0002 2.26153 20.9486 2.52167 20.848 2.76433C20.7474 3.00699 20.5999 3.22738 20.4139 3.41286L4.41392 19.4129C4.22942 19.6039 4.00874 19.7562 3.76473 19.8611C3.52072 19.9659 3.25828 20.0211 2.99272 20.0234C2.72716 20.0257 2.4638 19.9751 2.21801 19.8745C1.97222 19.7739 1.74891 19.6254 1.56113 19.4377C1.37334 19.2499 1.22484 19.0266 1.12427 18.7808C1.02371 18.535 0.97311 18.2716 0.975417 18.0061C0.977725 17.7405 1.0329 17.4781 1.13772 17.2341C1.24253 16.99 1.3949 16.7694 1.58592 16.5849L17.5859 0.584862C17.8656 0.305243 18.222 0.11483 18.6099 0.0376949C18.9978 -0.0394402 19.3998 0.000164032 19.7652 0.151505C20.1306 0.302845 20.443 0.559126 20.6627 0.887945C20.8825 1.21676 20.9998 1.60336 20.9999 1.99886Z" fill="#004B9E"/>
</svg>
